<mxfile host="app.diagrams.net" modified="2023-11-09T13:10:56.385Z" agent="Mozilla/5.0 (Windows NT 10.0; Win64; x64) AppleWebKit/537.36 (KHTML, like Gecko) Chrome/119.0.0.0 Safari/537.36" etag="Z08hxR6oGHYuq1Hh8p6t" version="22.1.0" type="github">
  <diagram name="Page-1" id="6mNYl5aLtAXrVdr73i4R">
    <mxGraphModel dx="1434" dy="790" grid="1" gridSize="10" guides="1" tooltips="1" connect="1" arrows="1" fold="1" page="1" pageScale="1" pageWidth="850" pageHeight="1100" math="0" shadow="0">
      <root>
        <mxCell id="0" />
        <mxCell id="1" parent="0" />
        <mxCell id="qyHEatYL2sMcPmLjVxqT-1" value="Book" style="swimlane;childLayout=stackLayout;horizontal=1;startSize=50;horizontalStack=0;rounded=1;fontSize=14;fontStyle=0;strokeWidth=2;resizeParent=0;resizeLast=1;shadow=0;dashed=0;align=center;arcSize=4;whiteSpace=wrap;html=1;" parent="1" vertex="1">
          <mxGeometry x="230" y="400" width="160" height="120" as="geometry" />
        </mxCell>
        <mxCell id="qyHEatYL2sMcPmLjVxqT-2" value="&lt;b&gt;ISBN{PK}&lt;br&gt;&lt;/b&gt;Bookname&lt;br&gt;Book Author&lt;br&gt;Yearof Pub" style="align=left;strokeColor=none;fillColor=none;spacingLeft=4;fontSize=12;verticalAlign=top;resizable=0;rotatable=0;part=1;html=1;" parent="qyHEatYL2sMcPmLjVxqT-1" vertex="1">
          <mxGeometry y="50" width="160" height="70" as="geometry" />
        </mxCell>
        <mxCell id="qyHEatYL2sMcPmLjVxqT-9" value="" style="swimlane;childLayout=stackLayout;horizontal=1;startSize=50;horizontalStack=0;rounded=1;fontSize=14;fontStyle=0;strokeWidth=2;resizeParent=0;resizeLast=1;shadow=0;dashed=0;align=center;arcSize=4;whiteSpace=wrap;html=1;" parent="qyHEatYL2sMcPmLjVxqT-1" vertex="1">
          <mxGeometry y="120" width="160" as="geometry" />
        </mxCell>
        <mxCell id="qyHEatYL2sMcPmLjVxqT-3" value="User" style="swimlane;childLayout=stackLayout;horizontal=1;startSize=50;horizontalStack=0;rounded=1;fontSize=14;fontStyle=0;strokeWidth=2;resizeParent=0;resizeLast=1;shadow=0;dashed=0;align=center;arcSize=4;whiteSpace=wrap;html=1;" parent="1" vertex="1">
          <mxGeometry x="560" y="400" width="160" height="120" as="geometry" />
        </mxCell>
        <mxCell id="qyHEatYL2sMcPmLjVxqT-4" value="&lt;b&gt;UserID{PK}&lt;br&gt;&lt;/b&gt;Username&lt;br&gt;User email&lt;br&gt;User address" style="align=left;strokeColor=none;fillColor=none;spacingLeft=4;fontSize=12;verticalAlign=top;resizable=0;rotatable=0;part=1;html=1;" parent="qyHEatYL2sMcPmLjVxqT-3" vertex="1">
          <mxGeometry y="50" width="160" height="70" as="geometry" />
        </mxCell>
        <mxCell id="qyHEatYL2sMcPmLjVxqT-5" value="Publisher" style="swimlane;childLayout=stackLayout;horizontal=1;startSize=50;horizontalStack=0;rounded=1;fontSize=14;fontStyle=0;strokeWidth=2;resizeParent=0;resizeLast=1;shadow=0;dashed=0;align=center;arcSize=4;whiteSpace=wrap;html=1;" parent="1" vertex="1">
          <mxGeometry x="70" y="580" width="110" height="140" as="geometry" />
        </mxCell>
        <mxCell id="qyHEatYL2sMcPmLjVxqT-6" value="&lt;b&gt;Pub ID{PK}&lt;br&gt;&lt;/b&gt;Pub Name&lt;br&gt;Pub address&lt;br&gt;Pub License no" style="align=left;strokeColor=none;fillColor=none;spacingLeft=4;fontSize=12;verticalAlign=top;resizable=0;rotatable=0;part=1;html=1;" parent="qyHEatYL2sMcPmLjVxqT-5" vertex="1">
          <mxGeometry y="50" width="110" height="90" as="geometry" />
        </mxCell>
        <mxCell id="qyHEatYL2sMcPmLjVxqT-7" value="Librarian" style="swimlane;childLayout=stackLayout;horizontal=1;startSize=50;horizontalStack=0;rounded=1;fontSize=14;fontStyle=0;strokeWidth=2;resizeParent=0;resizeLast=1;shadow=0;dashed=0;align=center;arcSize=4;whiteSpace=wrap;html=1;" parent="1" vertex="1">
          <mxGeometry x="250" y="760" width="160" height="120" as="geometry" />
        </mxCell>
        <mxCell id="qyHEatYL2sMcPmLjVxqT-8" value="&lt;b&gt;StaffID{PK}&lt;/b&gt;&lt;br&gt;LibFullname&lt;br&gt;Lib Address&lt;br&gt;Lib telno" style="align=left;strokeColor=none;fillColor=none;spacingLeft=4;fontSize=12;verticalAlign=top;resizable=0;rotatable=0;part=1;html=1;" parent="qyHEatYL2sMcPmLjVxqT-7" vertex="1">
          <mxGeometry y="50" width="160" height="70" as="geometry" />
        </mxCell>
        <mxCell id="qyHEatYL2sMcPmLjVxqT-11" value="" style="endArrow=none;html=1;rounded=0;entryX=0;entryY=0.5;entryDx=0;entryDy=0;" parent="1" target="qyHEatYL2sMcPmLjVxqT-3" edge="1">
          <mxGeometry width="50" height="50" relative="1" as="geometry">
            <mxPoint x="390" y="460" as="sourcePoint" />
            <mxPoint x="370" y="410" as="targetPoint" />
          </mxGeometry>
        </mxCell>
        <mxCell id="qyHEatYL2sMcPmLjVxqT-12" value="" style="endArrow=none;html=1;rounded=0;entryX=0.388;entryY=0;entryDx=0;entryDy=0;exitX=0.5;exitY=1;exitDx=0;exitDy=0;entryPerimeter=0;" parent="1" source="qyHEatYL2sMcPmLjVxqT-2" target="qyHEatYL2sMcPmLjVxqT-7" edge="1">
          <mxGeometry width="50" height="50" relative="1" as="geometry">
            <mxPoint x="160" y="560" as="sourcePoint" />
            <mxPoint x="320" y="560" as="targetPoint" />
          </mxGeometry>
        </mxCell>
        <mxCell id="qyHEatYL2sMcPmLjVxqT-14" style="edgeStyle=orthogonalEdgeStyle;rounded=0;orthogonalLoop=1;jettySize=auto;html=1;entryX=0.445;entryY=1;entryDx=0;entryDy=0;entryPerimeter=0;endArrow=none;endFill=0;" parent="1" source="qyHEatYL2sMcPmLjVxqT-7" target="qyHEatYL2sMcPmLjVxqT-6" edge="1">
          <mxGeometry relative="1" as="geometry" />
        </mxCell>
        <mxCell id="qyHEatYL2sMcPmLjVxqT-19" value="" style="endArrow=none;html=1;rounded=0;entryX=-0.025;entryY=0.342;entryDx=0;entryDy=0;entryPerimeter=0;exitX=0.436;exitY=0.007;exitDx=0;exitDy=0;exitPerimeter=0;" parent="1" source="qyHEatYL2sMcPmLjVxqT-5" target="qyHEatYL2sMcPmLjVxqT-1" edge="1">
          <mxGeometry width="50" height="50" relative="1" as="geometry">
            <mxPoint x="120" y="570" as="sourcePoint" />
            <mxPoint x="230" y="435" as="targetPoint" />
            <Array as="points">
              <mxPoint x="120" y="440" />
            </Array>
          </mxGeometry>
        </mxCell>
        <mxCell id="qyHEatYL2sMcPmLjVxqT-20" value="" style="triangle;whiteSpace=wrap;html=1;strokeColor=#000000;fillColor=#330033;rotation=-90;" parent="1" vertex="1">
          <mxGeometry x="320" y="620" width="20" height="20" as="geometry" />
        </mxCell>
        <mxCell id="qyHEatYL2sMcPmLjVxqT-21" value="" style="triangle;whiteSpace=wrap;html=1;strokeColor=#000000;fillColor=#330033;" parent="1" vertex="1">
          <mxGeometry x="170" y="410" width="20" height="20" as="geometry" />
        </mxCell>
        <mxCell id="qyHEatYL2sMcPmLjVxqT-23" value="" style="triangle;whiteSpace=wrap;html=1;strokeColor=#000000;fillColor=#330033;rotation=-90;" parent="1" vertex="1">
          <mxGeometry x="90" y="798" width="20" height="20" as="geometry" />
        </mxCell>
        <mxCell id="qyHEatYL2sMcPmLjVxqT-24" value="" style="triangle;whiteSpace=wrap;html=1;strokeColor=#000000;fillColor=#330033;rotation=-180;" parent="1" vertex="1">
          <mxGeometry x="460" y="430" width="20" height="20" as="geometry" />
        </mxCell>
        <mxCell id="qyHEatYL2sMcPmLjVxqT-25" value="Publish" style="text;html=1;align=center;verticalAlign=middle;resizable=0;points=[];autosize=1;strokeColor=none;fillColor=none;" parent="1" vertex="1">
          <mxGeometry x="110" y="400" width="60" height="30" as="geometry" />
        </mxCell>
        <mxCell id="qyHEatYL2sMcPmLjVxqT-26" value="Borrows" style="text;html=1;align=center;verticalAlign=middle;resizable=0;points=[];autosize=1;strokeColor=none;fillColor=none;" parent="1" vertex="1">
          <mxGeometry x="480" y="425" width="70" height="30" as="geometry" />
        </mxCell>
        <mxCell id="qyHEatYL2sMcPmLjVxqT-27" value="Is responsible" style="text;html=1;align=center;verticalAlign=middle;resizable=0;points=[];autosize=1;strokeColor=none;fillColor=none;" parent="1" vertex="1">
          <mxGeometry x="310" y="648" width="100" height="30" as="geometry" />
        </mxCell>
        <mxCell id="qyHEatYL2sMcPmLjVxqT-28" value="Is allocated" style="text;html=1;align=center;verticalAlign=middle;resizable=0;points=[];autosize=1;strokeColor=none;fillColor=none;" parent="1" vertex="1">
          <mxGeometry x="90" y="818" width="80" height="30" as="geometry" />
        </mxCell>
        <mxCell id="qyHEatYL2sMcPmLjVxqT-30" value="1..*" style="text;html=1;align=center;verticalAlign=middle;resizable=0;points=[];autosize=1;strokeColor=none;fillColor=none;" parent="1" vertex="1">
          <mxGeometry x="190" y="408" width="40" height="30" as="geometry" />
        </mxCell>
        <mxCell id="qyHEatYL2sMcPmLjVxqT-31" value="1..1" style="text;html=1;align=center;verticalAlign=middle;resizable=0;points=[];autosize=1;strokeColor=none;fillColor=none;" parent="1" vertex="1">
          <mxGeometry x="70" y="548" width="40" height="30" as="geometry" />
        </mxCell>
        <mxCell id="qyHEatYL2sMcPmLjVxqT-32" value="1..*" style="text;html=1;align=center;verticalAlign=middle;resizable=0;points=[];autosize=1;strokeColor=none;fillColor=none;" parent="1" vertex="1">
          <mxGeometry x="60" y="718" width="40" height="30" as="geometry" />
        </mxCell>
        <mxCell id="qyHEatYL2sMcPmLjVxqT-33" value="1..1" style="text;html=1;align=center;verticalAlign=middle;resizable=0;points=[];autosize=1;strokeColor=none;fillColor=none;" parent="1" vertex="1">
          <mxGeometry x="200" y="818" width="40" height="30" as="geometry" />
        </mxCell>
        <mxCell id="qyHEatYL2sMcPmLjVxqT-34" value="1..1" style="text;html=1;align=center;verticalAlign=middle;resizable=0;points=[];autosize=1;strokeColor=none;fillColor=none;" parent="1" vertex="1">
          <mxGeometry x="270" y="728" width="40" height="30" as="geometry" />
        </mxCell>
        <mxCell id="qyHEatYL2sMcPmLjVxqT-35" value="0..*" style="text;html=1;align=center;verticalAlign=middle;resizable=0;points=[];autosize=1;strokeColor=none;fillColor=none;" parent="1" vertex="1">
          <mxGeometry x="270" y="518" width="40" height="30" as="geometry" />
        </mxCell>
        <mxCell id="qyHEatYL2sMcPmLjVxqT-36" value="0..*" style="text;html=1;align=center;verticalAlign=middle;resizable=0;points=[];autosize=1;strokeColor=none;fillColor=none;" parent="1" vertex="1">
          <mxGeometry x="390" y="458" width="40" height="30" as="geometry" />
        </mxCell>
        <mxCell id="qyHEatYL2sMcPmLjVxqT-37" value="0..*" style="text;html=1;align=center;verticalAlign=middle;resizable=0;points=[];autosize=1;strokeColor=none;fillColor=none;" parent="1" vertex="1">
          <mxGeometry x="520" y="458" width="40" height="30" as="geometry" />
        </mxCell>
        <mxCell id="plLwiqWHpVFlgW2z9lWA-10" style="edgeStyle=orthogonalEdgeStyle;rounded=0;orthogonalLoop=1;jettySize=auto;html=1;entryX=0;entryY=0.25;entryDx=0;entryDy=0;exitX=0.5;exitY=0;exitDx=0;exitDy=0;endArrow=none;endFill=0;strokeWidth=2;" edge="1" parent="1" source="qyHEatYL2sMcPmLjVxqT-81" target="qyHEatYL2sMcPmLjVxqT-122">
          <mxGeometry relative="1" as="geometry" />
        </mxCell>
        <mxCell id="qyHEatYL2sMcPmLjVxqT-81" value="Book" style="swimlane;childLayout=stackLayout;horizontal=1;startSize=30;horizontalStack=0;rounded=1;fontSize=14;fontStyle=0;strokeWidth=2;resizeParent=0;resizeLast=1;shadow=0;dashed=0;align=center;arcSize=4;whiteSpace=wrap;html=1;" parent="1" vertex="1">
          <mxGeometry x="250" y="1261" width="160" height="150" as="geometry" />
        </mxCell>
        <mxCell id="qyHEatYL2sMcPmLjVxqT-82" value="&lt;b&gt;ISBN{PK}&lt;br&gt;&lt;/b&gt;Bookname&lt;br&gt;Book Author&lt;br&gt;Yearof Pub&lt;br&gt;&lt;font color=&quot;#ff3333&quot;&gt;Pub ID{FK}&lt;br&gt;&lt;/font&gt;&lt;font color=&quot;#000099&quot;&gt;&lt;b&gt;StaffID{FK}&lt;/b&gt;&lt;/font&gt;&lt;font color=&quot;#ff3333&quot;&gt;&lt;br&gt;&lt;/font&gt;" style="align=left;strokeColor=none;fillColor=none;spacingLeft=4;fontSize=12;verticalAlign=top;resizable=0;rotatable=0;part=1;html=1;" parent="qyHEatYL2sMcPmLjVxqT-81" vertex="1">
          <mxGeometry y="30" width="160" height="120" as="geometry" />
        </mxCell>
        <mxCell id="plLwiqWHpVFlgW2z9lWA-12" style="edgeStyle=orthogonalEdgeStyle;rounded=0;orthogonalLoop=1;jettySize=auto;html=1;entryX=1;entryY=0;entryDx=0;entryDy=0;endArrow=none;endFill=0;strokeWidth=2;" edge="1" parent="1" source="qyHEatYL2sMcPmLjVxqT-84" target="qyHEatYL2sMcPmLjVxqT-122">
          <mxGeometry relative="1" as="geometry">
            <Array as="points">
              <mxPoint x="700" y="1090" />
              <mxPoint x="575" y="1090" />
            </Array>
          </mxGeometry>
        </mxCell>
        <mxCell id="qyHEatYL2sMcPmLjVxqT-84" value="User" style="swimlane;childLayout=stackLayout;horizontal=1;startSize=50;horizontalStack=0;rounded=1;fontSize=14;fontStyle=0;strokeWidth=2;resizeParent=0;resizeLast=1;shadow=0;dashed=0;align=center;arcSize=4;whiteSpace=wrap;html=1;" parent="1" vertex="1">
          <mxGeometry x="585" y="1260" width="200" height="160" as="geometry" />
        </mxCell>
        <mxCell id="qyHEatYL2sMcPmLjVxqT-85" value="&lt;b&gt;UserID{PK}&lt;br&gt;&lt;/b&gt;Username&lt;br&gt;User email&lt;br&gt;User address" style="align=left;strokeColor=none;fillColor=none;spacingLeft=4;fontSize=12;verticalAlign=top;resizable=0;rotatable=0;part=1;html=1;" parent="qyHEatYL2sMcPmLjVxqT-84" vertex="1">
          <mxGeometry y="50" width="200" height="110" as="geometry" />
        </mxCell>
        <mxCell id="qyHEatYL2sMcPmLjVxqT-86" value="Publisher" style="swimlane;childLayout=stackLayout;horizontal=1;startSize=50;horizontalStack=0;rounded=1;fontSize=14;fontStyle=0;strokeWidth=2;resizeParent=0;resizeLast=1;shadow=0;dashed=0;align=center;arcSize=4;whiteSpace=wrap;html=1;" parent="1" vertex="1">
          <mxGeometry x="90" y="1441" width="130" height="150" as="geometry" />
        </mxCell>
        <mxCell id="qyHEatYL2sMcPmLjVxqT-87" value="&lt;b&gt;Pub ID{PK}&lt;br&gt;&lt;/b&gt;Pub Name&lt;br&gt;Pub address&lt;br&gt;Pub License no&lt;br&gt;&lt;b&gt;&lt;font color=&quot;#ff3333&quot;&gt;StaffID{FK}&lt;/font&gt;&lt;/b&gt;" style="align=left;strokeColor=none;fillColor=none;spacingLeft=4;fontSize=12;verticalAlign=top;resizable=0;rotatable=0;part=1;html=1;" parent="qyHEatYL2sMcPmLjVxqT-86" vertex="1">
          <mxGeometry y="50" width="130" height="100" as="geometry" />
        </mxCell>
        <mxCell id="qyHEatYL2sMcPmLjVxqT-88" value="Librarian" style="swimlane;childLayout=stackLayout;horizontal=1;startSize=50;horizontalStack=0;rounded=1;fontSize=14;fontStyle=0;strokeWidth=2;resizeParent=0;resizeLast=1;shadow=0;dashed=0;align=center;arcSize=4;whiteSpace=wrap;html=1;" parent="1" vertex="1">
          <mxGeometry x="275" y="1620" width="160" height="160" as="geometry" />
        </mxCell>
        <mxCell id="qyHEatYL2sMcPmLjVxqT-89" value="&lt;b&gt;StaffID{PK}&lt;/b&gt;&lt;br&gt;LibFullname&lt;br&gt;Lib Address&lt;br&gt;Lib telno&lt;br&gt;" style="align=left;strokeColor=none;fillColor=none;spacingLeft=4;fontSize=12;verticalAlign=top;resizable=0;rotatable=0;part=1;html=1;" parent="qyHEatYL2sMcPmLjVxqT-88" vertex="1">
          <mxGeometry y="50" width="160" height="110" as="geometry" />
        </mxCell>
        <mxCell id="qyHEatYL2sMcPmLjVxqT-91" value="" style="endArrow=none;html=1;rounded=0;entryX=0.388;entryY=0;entryDx=0;entryDy=0;entryPerimeter=0;exitX=0.513;exitY=1;exitDx=0;exitDy=0;exitPerimeter=0;strokeWidth=2;endFill=0;" parent="1" source="qyHEatYL2sMcPmLjVxqT-82" target="qyHEatYL2sMcPmLjVxqT-88" edge="1">
          <mxGeometry width="50" height="50" relative="1" as="geometry">
            <mxPoint x="335" y="1420" as="sourcePoint" />
            <mxPoint x="345" y="1420" as="targetPoint" />
          </mxGeometry>
        </mxCell>
        <mxCell id="qyHEatYL2sMcPmLjVxqT-92" style="edgeStyle=orthogonalEdgeStyle;rounded=0;orthogonalLoop=1;jettySize=auto;html=1;entryX=0.445;entryY=1;entryDx=0;entryDy=0;entryPerimeter=0;endArrow=none;endFill=0;strokeWidth=2;" parent="1" source="qyHEatYL2sMcPmLjVxqT-88" target="qyHEatYL2sMcPmLjVxqT-87" edge="1">
          <mxGeometry relative="1" as="geometry" />
        </mxCell>
        <mxCell id="qyHEatYL2sMcPmLjVxqT-93" value="" style="endArrow=none;html=1;rounded=0;entryX=0.85;entryY=1.167;entryDx=0;entryDy=0;entryPerimeter=0;exitX=0.436;exitY=0.007;exitDx=0;exitDy=0;exitPerimeter=0;strokeWidth=2;endFill=0;" parent="1" source="qyHEatYL2sMcPmLjVxqT-86" target="qyHEatYL2sMcPmLjVxqT-102" edge="1">
          <mxGeometry width="50" height="50" relative="1" as="geometry">
            <mxPoint x="145" y="1430" as="sourcePoint" />
            <mxPoint x="255" y="1295" as="targetPoint" />
            <Array as="points">
              <mxPoint x="145" y="1300" />
            </Array>
          </mxGeometry>
        </mxCell>
        <mxCell id="qyHEatYL2sMcPmLjVxqT-94" value="" style="triangle;whiteSpace=wrap;html=1;strokeColor=#000000;fillColor=#330033;rotation=-90;" parent="1" vertex="1">
          <mxGeometry x="345" y="1480" width="20" height="20" as="geometry" />
        </mxCell>
        <mxCell id="qyHEatYL2sMcPmLjVxqT-95" value="" style="triangle;whiteSpace=wrap;html=1;strokeColor=#000000;fillColor=#330033;" parent="1" vertex="1">
          <mxGeometry x="195" y="1270" width="20" height="20" as="geometry" />
        </mxCell>
        <mxCell id="qyHEatYL2sMcPmLjVxqT-96" value="" style="triangle;whiteSpace=wrap;html=1;strokeColor=#000000;fillColor=#330033;rotation=-90;" parent="1" vertex="1">
          <mxGeometry x="115" y="1658" width="20" height="20" as="geometry" />
        </mxCell>
        <mxCell id="qyHEatYL2sMcPmLjVxqT-98" value="Publish" style="text;html=1;align=center;verticalAlign=middle;resizable=0;points=[];autosize=1;strokeColor=none;fillColor=none;" parent="1" vertex="1">
          <mxGeometry x="135" y="1260" width="60" height="30" as="geometry" />
        </mxCell>
        <mxCell id="qyHEatYL2sMcPmLjVxqT-100" value="Is responsible" style="text;html=1;align=center;verticalAlign=middle;resizable=0;points=[];autosize=1;strokeColor=none;fillColor=none;" parent="1" vertex="1">
          <mxGeometry x="335" y="1508" width="100" height="30" as="geometry" />
        </mxCell>
        <mxCell id="qyHEatYL2sMcPmLjVxqT-101" value="Is allocated" style="text;html=1;align=center;verticalAlign=middle;resizable=0;points=[];autosize=1;strokeColor=none;fillColor=none;" parent="1" vertex="1">
          <mxGeometry x="115" y="1701" width="80" height="30" as="geometry" />
        </mxCell>
        <mxCell id="qyHEatYL2sMcPmLjVxqT-102" value="1..*" style="text;html=1;align=center;verticalAlign=middle;resizable=0;points=[];autosize=1;strokeColor=none;fillColor=none;" parent="1" vertex="1">
          <mxGeometry x="215" y="1268" width="40" height="30" as="geometry" />
        </mxCell>
        <mxCell id="qyHEatYL2sMcPmLjVxqT-103" value="1..1" style="text;html=1;align=center;verticalAlign=middle;resizable=0;points=[];autosize=1;strokeColor=none;fillColor=none;" parent="1" vertex="1">
          <mxGeometry x="95" y="1408" width="40" height="30" as="geometry" />
        </mxCell>
        <mxCell id="qyHEatYL2sMcPmLjVxqT-104" value="1..*" style="text;html=1;align=center;verticalAlign=middle;resizable=0;points=[];autosize=1;strokeColor=none;fillColor=none;" parent="1" vertex="1">
          <mxGeometry x="105" y="1594" width="40" height="30" as="geometry" />
        </mxCell>
        <mxCell id="qyHEatYL2sMcPmLjVxqT-105" value="1..1" style="text;html=1;align=center;verticalAlign=middle;resizable=0;points=[];autosize=1;strokeColor=none;fillColor=none;" parent="1" vertex="1">
          <mxGeometry x="225" y="1678" width="40" height="30" as="geometry" />
        </mxCell>
        <mxCell id="qyHEatYL2sMcPmLjVxqT-106" value="1..1" style="text;html=1;align=center;verticalAlign=middle;resizable=0;points=[];autosize=1;strokeColor=none;fillColor=none;" parent="1" vertex="1">
          <mxGeometry x="295" y="1588" width="40" height="30" as="geometry" />
        </mxCell>
        <mxCell id="qyHEatYL2sMcPmLjVxqT-107" value="0..*" style="text;html=1;align=center;verticalAlign=middle;resizable=0;points=[];autosize=1;strokeColor=none;fillColor=none;" parent="1" vertex="1">
          <mxGeometry x="295" y="1411" width="40" height="30" as="geometry" />
        </mxCell>
        <mxCell id="qyHEatYL2sMcPmLjVxqT-117" value="&lt;b&gt;&lt;font color=&quot;#66b2ff&quot;&gt;Parent&lt;/font&gt;&lt;/b&gt;" style="text;html=1;align=center;verticalAlign=middle;resizable=0;points=[];autosize=1;strokeColor=none;fillColor=none;" parent="1" vertex="1">
          <mxGeometry x="155" y="1400" width="60" height="30" as="geometry" />
        </mxCell>
        <mxCell id="qyHEatYL2sMcPmLjVxqT-118" value="&lt;font color=&quot;#66b2ff&quot;&gt;Child&lt;/font&gt;" style="text;html=1;align=center;verticalAlign=middle;resizable=0;points=[];autosize=1;strokeColor=none;fillColor=none;" parent="1" vertex="1">
          <mxGeometry x="261" y="1228" width="50" height="30" as="geometry" />
        </mxCell>
        <mxCell id="qyHEatYL2sMcPmLjVxqT-119" value="&lt;b&gt;&lt;font color=&quot;#cc99ff&quot;&gt;Parent&lt;/font&gt;&lt;/b&gt;" style="text;html=1;align=center;verticalAlign=middle;resizable=0;points=[];autosize=1;strokeColor=none;fillColor=none;" parent="1" vertex="1">
          <mxGeometry x="365" y="1578" width="60" height="30" as="geometry" />
        </mxCell>
        <mxCell id="qyHEatYL2sMcPmLjVxqT-120" value="&lt;b style=&quot;border-color: var(--border-color);&quot;&gt;&lt;font style=&quot;border-color: var(--border-color);&quot; color=&quot;#cc99ff&quot;&gt;Child&lt;/font&gt;&lt;/b&gt;" style="text;html=1;align=center;verticalAlign=middle;resizable=0;points=[];autosize=1;strokeColor=none;fillColor=none;" parent="1" vertex="1">
          <mxGeometry x="220" y="1528" width="50" height="30" as="geometry" />
        </mxCell>
        <mxCell id="qyHEatYL2sMcPmLjVxqT-121" value="Book_Borrowed" style="swimlane;childLayout=stackLayout;horizontal=1;startSize=50;horizontalStack=0;rounded=1;fontSize=14;fontStyle=0;strokeWidth=2;resizeParent=0;resizeLast=1;shadow=0;dashed=0;align=center;arcSize=4;whiteSpace=wrap;html=1;" parent="1" vertex="1">
          <mxGeometry x="415" y="1020" width="160" height="120" as="geometry" />
        </mxCell>
        <mxCell id="qyHEatYL2sMcPmLjVxqT-122" value="(&lt;font color=&quot;#ff00ff&quot;&gt;&lt;b&gt;ISBN{AK}&lt;/b&gt;&lt;/font&gt;&lt;br&gt;&lt;font color=&quot;#ff33ff&quot;&gt;&lt;b&gt;UserID{AK}&lt;/b&gt;&lt;/font&gt;&lt;br&gt;&lt;b&gt;&lt;font color=&quot;#0000cc&quot;&gt;Borrowed date){PK}&lt;/font&gt;&lt;/b&gt;" style="align=left;strokeColor=none;fillColor=none;spacingLeft=4;fontSize=12;verticalAlign=top;resizable=0;rotatable=0;part=1;html=1;" parent="qyHEatYL2sMcPmLjVxqT-121" vertex="1">
          <mxGeometry y="50" width="160" height="70" as="geometry" />
        </mxCell>
        <mxCell id="plLwiqWHpVFlgW2z9lWA-1" value="" style="swimlane;childLayout=stackLayout;horizontal=1;startSize=50;horizontalStack=0;rounded=1;fontSize=14;fontStyle=0;strokeWidth=2;resizeParent=0;resizeLast=1;shadow=0;dashed=0;align=center;arcSize=4;whiteSpace=wrap;html=1;" vertex="1" parent="qyHEatYL2sMcPmLjVxqT-121">
          <mxGeometry y="120" width="160" as="geometry" />
        </mxCell>
        <mxCell id="qyHEatYL2sMcPmLjVxqT-123" value="&lt;b style=&quot;border-color: var(--border-color); color: rgb(51, 255, 51); background-color: rgb(255, 0, 128);&quot;&gt;Child&lt;/b&gt;" style="text;html=1;align=center;verticalAlign=middle;resizable=0;points=[];autosize=1;strokeColor=none;fillColor=none;" parent="1" vertex="1">
          <mxGeometry x="355" y="1408" width="50" height="30" as="geometry" />
        </mxCell>
        <mxCell id="qyHEatYL2sMcPmLjVxqT-124" value="&lt;b style=&quot;border-color: var(--border-color); color: rgb(51, 255, 51); background-color: rgb(255, 0, 128);&quot;&gt;Parent&lt;/b&gt;" style="text;html=1;align=center;verticalAlign=middle;resizable=0;points=[];autosize=1;strokeColor=none;fillColor=none;" parent="1" vertex="1">
          <mxGeometry x="430" y="1620" width="60" height="30" as="geometry" />
        </mxCell>
        <mxCell id="plLwiqWHpVFlgW2z9lWA-13" value="" style="triangle;whiteSpace=wrap;html=1;strokeColor=#000000;fillColor=#330033;rotation=-90;" vertex="1" parent="1">
          <mxGeometry x="710" y="1120" width="20" height="20" as="geometry" />
        </mxCell>
        <mxCell id="plLwiqWHpVFlgW2z9lWA-14" value="" style="triangle;whiteSpace=wrap;html=1;strokeColor=#000000;fillColor=#330033;rotation=-90;" vertex="1" parent="1">
          <mxGeometry x="280" y="1120" width="20" height="20" as="geometry" />
        </mxCell>
        <mxCell id="plLwiqWHpVFlgW2z9lWA-16" value="0..*" style="text;html=1;align=center;verticalAlign=middle;resizable=0;points=[];autosize=1;strokeColor=none;fillColor=none;" vertex="1" parent="1">
          <mxGeometry x="360" y="1098" width="40" height="30" as="geometry" />
        </mxCell>
        <mxCell id="plLwiqWHpVFlgW2z9lWA-17" value="0..*" style="text;html=1;align=center;verticalAlign=middle;resizable=0;points=[];autosize=1;strokeColor=none;fillColor=none;" vertex="1" parent="1">
          <mxGeometry x="570" y="1088" width="40" height="30" as="geometry" />
        </mxCell>
        <mxCell id="plLwiqWHpVFlgW2z9lWA-18" value="&lt;b&gt;&lt;font color=&quot;#009999&quot;&gt;PARENT&lt;/font&gt;&lt;/b&gt;" style="text;html=1;align=center;verticalAlign=middle;resizable=0;points=[];autosize=1;strokeColor=none;fillColor=none;" vertex="1" parent="1">
          <mxGeometry x="335" y="1218" width="70" height="30" as="geometry" />
        </mxCell>
        <mxCell id="plLwiqWHpVFlgW2z9lWA-19" value="&lt;b style=&quot;border-color: var(--border-color);&quot;&gt;&lt;font style=&quot;border-color: var(--border-color);&quot; color=&quot;#009999&quot;&gt;PARENT&lt;/font&gt;&lt;/b&gt;" style="text;html=1;align=center;verticalAlign=middle;resizable=0;points=[];autosize=1;strokeColor=none;fillColor=none;" vertex="1" parent="1">
          <mxGeometry x="605" y="1208" width="70" height="30" as="geometry" />
        </mxCell>
        <mxCell id="plLwiqWHpVFlgW2z9lWA-20" value="&lt;b style=&quot;border-color: var(--border-color);&quot;&gt;&lt;font style=&quot;border-color: var(--border-color);&quot; color=&quot;#009999&quot;&gt;CHILD&lt;/font&gt;&lt;/b&gt;" style="text;html=1;align=center;verticalAlign=middle;resizable=0;points=[];autosize=1;strokeColor=none;fillColor=none;" vertex="1" parent="1">
          <mxGeometry x="460" y="988" width="60" height="30" as="geometry" />
        </mxCell>
        <mxCell id="plLwiqWHpVFlgW2z9lWA-21" value="Books borrowed" style="text;html=1;align=center;verticalAlign=middle;resizable=0;points=[];autosize=1;strokeColor=none;fillColor=none;" vertex="1" parent="1">
          <mxGeometry x="205" y="1148" width="110" height="30" as="geometry" />
        </mxCell>
        <mxCell id="plLwiqWHpVFlgW2z9lWA-22" value="User borrowed" style="text;html=1;align=center;verticalAlign=middle;resizable=0;points=[];autosize=1;strokeColor=none;fillColor=none;" vertex="1" parent="1">
          <mxGeometry x="690" y="1148" width="100" height="30" as="geometry" />
        </mxCell>
        <mxCell id="plLwiqWHpVFlgW2z9lWA-23" value="Organisation" style="swimlane;childLayout=stackLayout;horizontal=1;startSize=50;horizontalStack=0;rounded=1;fontSize=14;fontStyle=0;strokeWidth=2;resizeParent=0;resizeLast=1;shadow=0;dashed=0;align=center;arcSize=4;whiteSpace=wrap;html=1;" vertex="1" parent="1">
          <mxGeometry x="640" y="2360" width="180" height="140" as="geometry" />
        </mxCell>
        <mxCell id="plLwiqWHpVFlgW2z9lWA-24" value="&lt;b&gt;Org ID{PK}&lt;/b&gt;&lt;br&gt;Org name&lt;br&gt;org address&lt;br&gt;org email" style="align=left;strokeColor=none;fillColor=none;spacingLeft=4;fontSize=12;verticalAlign=top;resizable=0;rotatable=0;part=1;html=1;" vertex="1" parent="plLwiqWHpVFlgW2z9lWA-23">
          <mxGeometry y="50" width="180" height="90" as="geometry" />
        </mxCell>
        <mxCell id="plLwiqWHpVFlgW2z9lWA-26" value="Staff" style="swimlane;childLayout=stackLayout;horizontal=1;startSize=50;horizontalStack=0;rounded=1;fontSize=14;fontStyle=0;strokeWidth=2;resizeParent=0;resizeLast=1;shadow=0;dashed=0;align=center;arcSize=4;whiteSpace=wrap;html=1;" vertex="1" parent="1">
          <mxGeometry x="170" y="2360" width="170" height="150" as="geometry" />
        </mxCell>
        <mxCell id="plLwiqWHpVFlgW2z9lWA-27" value="&lt;b&gt;staff ID{PK}&lt;/b&gt;&lt;br&gt;staff name&lt;br&gt;staff email&lt;br&gt;staff Address" style="align=left;strokeColor=none;fillColor=none;spacingLeft=4;fontSize=12;verticalAlign=top;resizable=0;rotatable=0;part=1;html=1;" vertex="1" parent="plLwiqWHpVFlgW2z9lWA-26">
          <mxGeometry y="50" width="170" height="100" as="geometry" />
        </mxCell>
        <mxCell id="plLwiqWHpVFlgW2z9lWA-28" value="Projects" style="swimlane;childLayout=stackLayout;horizontal=1;startSize=50;horizontalStack=0;rounded=1;fontSize=14;fontStyle=0;strokeWidth=2;resizeParent=0;resizeLast=1;shadow=0;dashed=0;align=center;arcSize=4;whiteSpace=wrap;html=1;" vertex="1" parent="1">
          <mxGeometry x="355" y="1960" width="165" height="140" as="geometry" />
        </mxCell>
        <mxCell id="plLwiqWHpVFlgW2z9lWA-29" value="&lt;b&gt;Proj&amp;nbsp; Code{PK}&lt;/b&gt;&lt;br&gt;Pro description&lt;br&gt;Pro Name&lt;br&gt;Pro status" style="align=left;strokeColor=none;fillColor=none;spacingLeft=4;fontSize=12;verticalAlign=top;resizable=0;rotatable=0;part=1;html=1;" vertex="1" parent="plLwiqWHpVFlgW2z9lWA-28">
          <mxGeometry y="50" width="165" height="90" as="geometry" />
        </mxCell>
        <mxCell id="plLwiqWHpVFlgW2z9lWA-30" value="Skills" style="swimlane;childLayout=stackLayout;horizontal=1;startSize=50;horizontalStack=0;rounded=1;fontSize=14;fontStyle=0;strokeWidth=2;resizeParent=0;resizeLast=1;shadow=0;dashed=0;align=center;arcSize=4;whiteSpace=wrap;html=1;" vertex="1" parent="1">
          <mxGeometry x="20" y="1960" width="160" height="140" as="geometry" />
        </mxCell>
        <mxCell id="plLwiqWHpVFlgW2z9lWA-31" value="&lt;b&gt;Skill ID{PK}&lt;/b&gt;&lt;br&gt;Skill Type&lt;br&gt;Skill description&lt;br&gt;Skill Level" style="align=left;strokeColor=none;fillColor=none;spacingLeft=4;fontSize=12;verticalAlign=top;resizable=0;rotatable=0;part=1;html=1;" vertex="1" parent="plLwiqWHpVFlgW2z9lWA-30">
          <mxGeometry y="50" width="160" height="90" as="geometry" />
        </mxCell>
        <mxCell id="plLwiqWHpVFlgW2z9lWA-32" value="IT Solutions" style="swimlane;childLayout=stackLayout;horizontal=1;startSize=50;horizontalStack=0;rounded=1;fontSize=14;fontStyle=0;strokeWidth=2;resizeParent=0;resizeLast=1;shadow=0;dashed=0;align=center;arcSize=4;whiteSpace=wrap;html=1;" vertex="1" parent="1">
          <mxGeometry x="675" y="1960" width="165" height="140" as="geometry" />
        </mxCell>
        <mxCell id="plLwiqWHpVFlgW2z9lWA-33" value="&lt;b&gt;Solution ID{PK}&lt;br&gt;&lt;/b&gt;Solution type&lt;br&gt;solution Description" style="align=left;strokeColor=none;fillColor=none;spacingLeft=4;fontSize=12;verticalAlign=top;resizable=0;rotatable=0;part=1;html=1;" vertex="1" parent="plLwiqWHpVFlgW2z9lWA-32">
          <mxGeometry y="50" width="165" height="90" as="geometry" />
        </mxCell>
        <mxCell id="plLwiqWHpVFlgW2z9lWA-38" value="Utilises" style="shape=rhombus;perimeter=rhombusPerimeter;whiteSpace=wrap;html=1;align=center;" vertex="1" parent="1">
          <mxGeometry x="205" y="2140" width="120" height="100" as="geometry" />
        </mxCell>
        <mxCell id="plLwiqWHpVFlgW2z9lWA-39" style="edgeStyle=orthogonalEdgeStyle;rounded=0;orthogonalLoop=1;jettySize=auto;html=1;entryX=0.612;entryY=1.011;entryDx=0;entryDy=0;entryPerimeter=0;endArrow=none;endFill=0;strokeWidth=2;" edge="1" parent="1" source="plLwiqWHpVFlgW2z9lWA-27" target="plLwiqWHpVFlgW2z9lWA-29">
          <mxGeometry relative="1" as="geometry" />
        </mxCell>
        <mxCell id="plLwiqWHpVFlgW2z9lWA-41" style="edgeStyle=orthogonalEdgeStyle;rounded=0;orthogonalLoop=1;jettySize=auto;html=1;exitX=0;exitY=0.4;exitDx=0;exitDy=0;exitPerimeter=0;endArrow=none;endFill=0;strokeWidth=2;" edge="1" parent="1" source="plLwiqWHpVFlgW2z9lWA-27">
          <mxGeometry relative="1" as="geometry">
            <mxPoint x="150" y="2450" as="sourcePoint" />
            <mxPoint x="79" y="2100" as="targetPoint" />
          </mxGeometry>
        </mxCell>
        <mxCell id="plLwiqWHpVFlgW2z9lWA-42" style="edgeStyle=orthogonalEdgeStyle;rounded=0;orthogonalLoop=1;jettySize=auto;html=1;entryX=0.339;entryY=1;entryDx=0;entryDy=0;entryPerimeter=0;endArrow=none;endFill=0;strokeWidth=2;" edge="1" parent="1" source="plLwiqWHpVFlgW2z9lWA-23" target="plLwiqWHpVFlgW2z9lWA-33">
          <mxGeometry relative="1" as="geometry" />
        </mxCell>
        <mxCell id="plLwiqWHpVFlgW2z9lWA-43" style="edgeStyle=orthogonalEdgeStyle;rounded=0;orthogonalLoop=1;jettySize=auto;html=1;entryX=0;entryY=0.5;entryDx=0;entryDy=0;endArrow=none;endFill=0;strokeWidth=2;" edge="1" parent="1" source="plLwiqWHpVFlgW2z9lWA-29" target="plLwiqWHpVFlgW2z9lWA-33">
          <mxGeometry relative="1" as="geometry" />
        </mxCell>
        <mxCell id="plLwiqWHpVFlgW2z9lWA-45" style="edgeStyle=orthogonalEdgeStyle;rounded=0;orthogonalLoop=1;jettySize=auto;html=1;entryX=0.315;entryY=1.033;entryDx=0;entryDy=0;entryPerimeter=0;strokeWidth=2;endArrow=none;endFill=0;" edge="1" parent="1" source="plLwiqWHpVFlgW2z9lWA-38" target="plLwiqWHpVFlgW2z9lWA-29">
          <mxGeometry relative="1" as="geometry" />
        </mxCell>
        <mxCell id="plLwiqWHpVFlgW2z9lWA-46" style="edgeStyle=orthogonalEdgeStyle;rounded=0;orthogonalLoop=1;jettySize=auto;html=1;entryX=0.681;entryY=1.011;entryDx=0;entryDy=0;entryPerimeter=0;strokeWidth=2;endArrow=none;endFill=0;" edge="1" parent="1" source="plLwiqWHpVFlgW2z9lWA-38" target="plLwiqWHpVFlgW2z9lWA-31">
          <mxGeometry relative="1" as="geometry" />
        </mxCell>
        <mxCell id="plLwiqWHpVFlgW2z9lWA-47" value="" style="triangle;whiteSpace=wrap;html=1;strokeColor=#000000;fillColor=#330033;rotation=-90;" vertex="1" parent="1">
          <mxGeometry x="462" y="2260" width="20" height="20" as="geometry" />
        </mxCell>
        <mxCell id="plLwiqWHpVFlgW2z9lWA-48" value="" style="triangle;whiteSpace=wrap;html=1;strokeColor=#000000;fillColor=#330033;rotation=90;" vertex="1" parent="1">
          <mxGeometry x="740" y="2220" width="20" height="20" as="geometry" />
        </mxCell>
        <mxCell id="plLwiqWHpVFlgW2z9lWA-51" value="Is provided to" style="text;html=1;align=center;verticalAlign=middle;resizable=0;points=[];autosize=1;strokeColor=none;fillColor=none;" vertex="1" parent="1">
          <mxGeometry x="720" y="2168" width="100" height="30" as="geometry" />
        </mxCell>
        <mxCell id="plLwiqWHpVFlgW2z9lWA-54" value="Works on" style="text;html=1;align=center;verticalAlign=middle;resizable=0;points=[];autosize=1;strokeColor=none;fillColor=none;" vertex="1" parent="1">
          <mxGeometry x="448" y="2288" width="70" height="30" as="geometry" />
        </mxCell>
        <mxCell id="plLwiqWHpVFlgW2z9lWA-55" value="" style="triangle;whiteSpace=wrap;html=1;strokeColor=#000000;fillColor=#330033;rotation=-90;" vertex="1" parent="1">
          <mxGeometry x="40" y="2260" width="20" height="20" as="geometry" />
        </mxCell>
        <mxCell id="plLwiqWHpVFlgW2z9lWA-56" value="" style="triangle;whiteSpace=wrap;html=1;strokeColor=#000000;fillColor=#330033;rotation=0;" vertex="1" parent="1">
          <mxGeometry x="580" y="2010" width="20" height="20" as="geometry" />
        </mxCell>
        <mxCell id="plLwiqWHpVFlgW2z9lWA-57" value="Creates" style="text;html=1;align=center;verticalAlign=middle;resizable=0;points=[];autosize=1;strokeColor=none;fillColor=none;" vertex="1" parent="1">
          <mxGeometry x="555" y="1960" width="70" height="30" as="geometry" />
        </mxCell>
        <mxCell id="plLwiqWHpVFlgW2z9lWA-58" value="Has" style="text;html=1;align=center;verticalAlign=middle;resizable=0;points=[];autosize=1;strokeColor=none;fillColor=none;" vertex="1" parent="1">
          <mxGeometry x="30" y="2288" width="40" height="30" as="geometry" />
        </mxCell>
        <mxCell id="plLwiqWHpVFlgW2z9lWA-59" value="1..*" style="text;html=1;align=center;verticalAlign=middle;resizable=0;points=[];autosize=1;strokeColor=none;fillColor=none;" vertex="1" parent="1">
          <mxGeometry x="670" y="2308" width="40" height="30" as="geometry" />
        </mxCell>
        <mxCell id="plLwiqWHpVFlgW2z9lWA-60" value="1..1" style="text;html=1;align=center;verticalAlign=middle;resizable=0;points=[];autosize=1;strokeColor=none;fillColor=none;" vertex="1" parent="1">
          <mxGeometry x="680" y="2098" width="40" height="30" as="geometry" />
        </mxCell>
        <mxCell id="plLwiqWHpVFlgW2z9lWA-61" value="1..1" style="text;html=1;align=center;verticalAlign=middle;resizable=0;points=[];autosize=1;strokeColor=none;fillColor=none;" vertex="1" parent="1">
          <mxGeometry x="640" y="2058" width="40" height="30" as="geometry" />
        </mxCell>
        <mxCell id="plLwiqWHpVFlgW2z9lWA-62" value="1..*" style="text;html=1;align=center;verticalAlign=middle;resizable=0;points=[];autosize=1;strokeColor=none;fillColor=none;" vertex="1" parent="1">
          <mxGeometry x="518" y="2058" width="40" height="30" as="geometry" />
        </mxCell>
        <mxCell id="plLwiqWHpVFlgW2z9lWA-63" value="1..*" style="text;html=1;align=center;verticalAlign=middle;resizable=0;points=[];autosize=1;strokeColor=none;fillColor=none;" vertex="1" parent="1">
          <mxGeometry x="30" y="2098" width="40" height="30" as="geometry" />
        </mxCell>
        <mxCell id="plLwiqWHpVFlgW2z9lWA-64" value="0..*" style="text;html=1;align=center;verticalAlign=middle;resizable=0;points=[];autosize=1;strokeColor=none;fillColor=none;" vertex="1" parent="1">
          <mxGeometry x="120" y="2458" width="40" height="30" as="geometry" />
        </mxCell>
        <mxCell id="plLwiqWHpVFlgW2z9lWA-65" value="1..*" style="text;html=1;align=center;verticalAlign=middle;resizable=0;points=[];autosize=1;strokeColor=none;fillColor=none;" vertex="1" parent="1">
          <mxGeometry x="340" y="2458" width="40" height="30" as="geometry" />
        </mxCell>
        <mxCell id="plLwiqWHpVFlgW2z9lWA-66" value="0..*" style="text;html=1;align=center;verticalAlign=middle;resizable=0;points=[];autosize=1;strokeColor=none;fillColor=none;" vertex="1" parent="1">
          <mxGeometry x="460" y="2098" width="40" height="30" as="geometry" />
        </mxCell>
        <mxCell id="plLwiqWHpVFlgW2z9lWA-67" value="0..*" style="text;html=1;align=center;verticalAlign=middle;resizable=0;points=[];autosize=1;strokeColor=none;fillColor=none;" vertex="1" parent="1">
          <mxGeometry x="370" y="2098" width="40" height="30" as="geometry" />
        </mxCell>
        <mxCell id="plLwiqWHpVFlgW2z9lWA-68" value="1..*" style="text;html=1;align=center;verticalAlign=middle;resizable=0;points=[];autosize=1;strokeColor=none;fillColor=none;" vertex="1" parent="1">
          <mxGeometry x="140" y="2098" width="40" height="30" as="geometry" />
        </mxCell>
        <mxCell id="plLwiqWHpVFlgW2z9lWA-69" value="Org_Solu_List" style="swimlane;childLayout=stackLayout;horizontal=1;startSize=50;horizontalStack=0;rounded=1;fontSize=14;fontStyle=0;strokeWidth=2;resizeParent=0;resizeLast=1;shadow=0;dashed=0;align=center;arcSize=4;whiteSpace=wrap;html=1;" vertex="1" parent="1">
          <mxGeometry x="940" y="2168" width="180" height="140" as="geometry" />
        </mxCell>
        <mxCell id="plLwiqWHpVFlgW2z9lWA-70" value="(Solution ID{FK}&lt;br&gt;Org ID{FK}){PK}&lt;br&gt;&lt;br&gt;" style="align=left;strokeColor=none;fillColor=none;spacingLeft=4;fontSize=12;verticalAlign=top;resizable=0;rotatable=0;part=1;html=1;" vertex="1" parent="plLwiqWHpVFlgW2z9lWA-69">
          <mxGeometry y="50" width="180" height="90" as="geometry" />
        </mxCell>
        <mxCell id="plLwiqWHpVFlgW2z9lWA-71" style="edgeStyle=orthogonalEdgeStyle;rounded=0;orthogonalLoop=1;jettySize=auto;html=1;entryX=0.567;entryY=0.014;entryDx=0;entryDy=0;entryPerimeter=0;endArrow=none;endFill=0;strokeWidth=2;" edge="1" parent="1" source="plLwiqWHpVFlgW2z9lWA-33" target="plLwiqWHpVFlgW2z9lWA-69">
          <mxGeometry relative="1" as="geometry" />
        </mxCell>
        <mxCell id="plLwiqWHpVFlgW2z9lWA-72" style="edgeStyle=orthogonalEdgeStyle;rounded=0;orthogonalLoop=1;jettySize=auto;html=1;entryX=0.55;entryY=1.011;entryDx=0;entryDy=0;entryPerimeter=0;endArrow=none;endFill=0;strokeWidth=2;" edge="1" parent="1" source="plLwiqWHpVFlgW2z9lWA-24" target="plLwiqWHpVFlgW2z9lWA-70">
          <mxGeometry relative="1" as="geometry" />
        </mxCell>
      </root>
    </mxGraphModel>
  </diagram>
</mxfile>
